<svg width="18" height="16" viewBox="0 0 18 16" fill="none" xmlns="http://www.w3.org/2000/svg">
<path d="M0 10V8H7V10H0ZM0 6V4H11V6H0ZM0 2V0H11V2H0ZM9 16V12.925L14.525 7.425C14.675 7.275 14.8417 7.16667 15.025 7.1C15.2083 7.03333 15.3917 7 15.575 7C15.775 7 15.9667 7.0375 16.15 7.1125C16.3333 7.1875 16.5 7.3 16.65 7.45L17.575 8.375C17.7083 8.525 17.8125 8.69167 17.8875 8.875C17.9625 9.05833 18 9.24167 18 9.425C18 9.60833 17.9667 9.79583 17.9 9.9875C17.8333 10.1792 17.725 10.35 17.575 10.5L12.075 16H9ZM15.575 10.4L16.5 9.425L15.575 8.5L14.625 9.45L15.575 10.4Z" fill="#76B900"/>
</svg>
