<svg width="145" height="42" viewBox="0 0 145 42" fill="none" xmlns="http://www.w3.org/2000/svg">
<g clip-path="url(#clip0_18_515)">
<mask id="mask0_18_515" style="mask-type:luminance" maskUnits="userSpaceOnUse" x="0" y="0" width="145" height="42">
<path d="M145 0H0V42H145V0Z" fill="white"/>
</mask>
<g mask="url(#mask0_18_515)">
<mask id="mask1_18_515" style="mask-type:luminance" maskUnits="userSpaceOnUse" x="0" y="0" width="145" height="42">
<path d="M145 0H0V42H145V0Z" fill="white"/>
</mask>
<g mask="url(#mask1_18_515)">
<mask id="mask2_18_515" style="mask-type:luminance" maskUnits="userSpaceOnUse" x="0" y="0" width="145" height="42">
<path d="M144.752 0H0V42H144.752V0Z" fill="white"/>
</mask>
<g mask="url(#mask2_18_515)">
<mask id="mask3_18_515" style="mask-type:luminance" maskUnits="userSpaceOnUse" x="0" y="0" width="145" height="42">
<path d="M144.752 0H0V42H144.752V0Z" fill="white"/>
</mask>
<g mask="url(#mask3_18_515)">
<path d="M106.956 16.5967C107.689 17.2563 108.055 18.3512 108.053 19.8813C108.053 22.7308 106.632 24.1555 103.788 24.1557H101.053C101.038 24.1578 101.022 24.1564 101.008 24.1516C100.993 24.1468 100.98 24.1388 100.969 24.1281C100.958 24.1174 100.949 24.1044 100.944 24.0901C100.94 24.0758 100.938 24.0606 100.94 24.0456L101.04 15.7175C101.038 15.7026 101.039 15.6873 101.044 15.673C101.049 15.6587 101.058 15.6457 101.068 15.635C101.079 15.6243 101.093 15.6163 101.107 15.6115C101.122 15.6067 101.138 15.6053 101.153 15.6074H103.788C105.167 15.6074 106.223 15.9373 106.955 16.5969M106.478 22.7266C107.092 22.1652 107.4 21.2168 107.4 19.8816C107.4 18.0415 106.823 16.9058 105.669 16.4745C105.063 16.2751 104.427 16.1801 103.787 16.1938H101.692L101.592 23.5693H103.787C104.966 23.5693 105.863 23.2884 106.478 22.7266Z" fill="white"/>
<path d="M106.956 16.5967C107.689 17.2563 108.055 18.3512 108.053 19.8813C108.053 22.7308 106.632 24.1555 103.788 24.1557H101.053C101.038 24.1578 101.022 24.1564 101.008 24.1516C100.993 24.1468 100.98 24.1388 100.969 24.1281C100.958 24.1174 100.949 24.1044 100.944 24.0901C100.94 24.0758 100.938 24.0606 100.94 24.0456L101.04 15.7175C101.038 15.7026 101.039 15.6873 101.044 15.673C101.049 15.6587 101.058 15.6457 101.068 15.635C101.079 15.6243 101.093 15.6163 101.107 15.6115C101.122 15.6067 101.138 15.6053 101.153 15.6074H103.788C105.167 15.6074 106.223 15.9373 106.955 16.5969M106.478 22.7266C107.092 22.1652 107.4 21.2168 107.4 19.8816C107.4 18.0415 106.823 16.9058 105.669 16.4745C105.063 16.2751 104.427 16.1801 103.787 16.1938H101.692L101.592 23.5693H103.787C104.966 23.5693 105.863 23.2884 106.478 22.7266Z" fill="white"/>
<path d="M109.905 24.0639C109.875 24.0364 109.851 24.0033 109.835 23.9665C109.819 23.9297 109.81 23.8901 109.811 23.85V15.8763C109.809 15.8344 109.817 15.7927 109.833 15.7538C109.85 15.7149 109.874 15.6797 109.905 15.6504C109.933 15.6213 109.967 15.5982 110.005 15.5825C110.042 15.5668 110.083 15.5587 110.124 15.5589H110.149C110.19 15.557 110.232 15.5636 110.271 15.5783C110.31 15.593 110.345 15.6154 110.375 15.6441C110.404 15.6729 110.427 15.7073 110.443 15.7452C110.458 15.783 110.465 15.8236 110.463 15.8642V23.8504C110.463 23.9301 110.432 24.0068 110.375 24.0643C110.346 24.0943 110.311 24.118 110.272 24.1338C110.233 24.1495 110.191 24.157 110.149 24.1558H110.124C110.083 24.1558 110.042 24.1477 110.005 24.132C109.967 24.1163 109.933 24.0928 109.905 24.0639Z" fill="white"/>
<path d="M109.905 24.0639C109.875 24.0364 109.851 24.0033 109.835 23.9665C109.819 23.9297 109.81 23.8901 109.811 23.85V15.8763C109.809 15.8344 109.817 15.7927 109.833 15.7538C109.85 15.7149 109.874 15.6797 109.905 15.6504C109.933 15.6213 109.967 15.5982 110.005 15.5825C110.042 15.5668 110.083 15.5587 110.124 15.5589H110.149C110.19 15.557 110.232 15.5636 110.271 15.5783C110.31 15.593 110.345 15.6154 110.375 15.6441C110.404 15.6729 110.427 15.7073 110.443 15.7452C110.458 15.783 110.465 15.8236 110.463 15.8642V23.8504C110.463 23.9301 110.432 24.0068 110.375 24.0643C110.346 24.0943 110.311 24.118 110.272 24.1338C110.233 24.1495 110.191 24.157 110.149 24.1558H110.124C110.083 24.1558 110.042 24.1477 110.005 24.132C109.967 24.1163 109.933 24.0928 109.905 24.0639Z" fill="white"/>
<path d="M119.859 17.5979C119.667 17.2634 119.419 16.9622 119.125 16.7064C118.839 16.4747 118.509 16.3005 118.153 16.1939C117.665 16.0714 117.163 16.0138 116.659 16.0227C115.952 16.0041 115.251 16.1663 114.628 16.4932C114.062 16.8031 113.607 17.2739 113.323 17.8426C113.01 18.4786 112.855 19.1772 112.871 19.8821C112.855 20.585 113.01 21.2816 113.323 21.9152C113.609 22.482 114.064 22.9521 114.628 23.2643C115.25 23.5948 115.951 23.7592 116.659 23.7406C117.881 23.7406 118.788 23.4983 119.382 23.0137C119.976 22.5291 120.311 21.7416 120.386 20.6512H117.451C117.365 20.6533 117.281 20.6225 117.218 20.5654C117.189 20.5393 117.165 20.5073 117.149 20.4715C117.132 20.4358 117.124 20.3971 117.125 20.358C117.124 20.3193 117.131 20.2809 117.146 20.2451C117.162 20.2093 117.184 20.1768 117.212 20.1498C117.242 20.1214 117.278 20.0993 117.316 20.0846C117.355 20.07 117.397 20.0632 117.438 20.0646H120.976C120.992 20.0625 121.007 20.0639 121.022 20.0687C121.037 20.0735 121.05 20.0816 121.061 20.0922C121.072 20.1029 121.08 20.1159 121.085 20.1302C121.09 20.1445 121.091 20.1597 121.089 20.1746C121.081 21.5911 120.704 22.6372 119.96 23.3129C119.216 23.9887 118.116 24.3265 116.66 24.3264C115.847 24.3436 115.042 24.1542 114.327 23.7769C113.665 23.4179 113.124 22.879 112.771 22.226C112.391 21.5008 112.202 20.6953 112.219 19.8814C112.2 19.0668 112.386 18.2599 112.759 17.5305C113.105 16.8717 113.648 16.3294 114.315 15.974C115.036 15.603 115.844 15.4179 116.66 15.4363C117.614 15.4363 118.378 15.5809 118.95 15.87C119.566 16.1991 120.076 16.6873 120.424 17.2807C120.456 17.3322 120.473 17.391 120.474 17.4511C120.473 17.5088 120.454 17.565 120.421 17.6127C120.388 17.6605 120.341 17.6978 120.286 17.7201C120.239 17.7435 120.188 17.7559 120.135 17.7564C120.08 17.7532 120.026 17.7371 119.978 17.7095C119.93 17.6819 119.889 17.6438 119.859 17.5979Z" fill="white"/>
<path d="M119.859 17.5979C119.667 17.2634 119.419 16.9622 119.125 16.7064C118.839 16.4747 118.509 16.3005 118.153 16.1939C117.665 16.0714 117.163 16.0138 116.659 16.0227C115.952 16.0041 115.251 16.1663 114.628 16.4932C114.062 16.8031 113.607 17.2739 113.323 17.8426C113.01 18.4786 112.855 19.1772 112.871 19.8821C112.855 20.585 113.01 21.2816 113.323 21.9152C113.609 22.482 114.064 22.9521 114.628 23.2643C115.25 23.5948 115.951 23.7592 116.659 23.7406C117.881 23.7406 118.788 23.4983 119.382 23.0137C119.976 22.5291 120.311 21.7416 120.386 20.6512H117.451C117.365 20.6533 117.281 20.6225 117.218 20.5654C117.189 20.5393 117.165 20.5073 117.149 20.4715C117.132 20.4358 117.124 20.3971 117.125 20.358C117.124 20.3193 117.131 20.2809 117.146 20.2451C117.162 20.2093 117.184 20.1768 117.212 20.1498C117.242 20.1214 117.278 20.0993 117.316 20.0846C117.355 20.07 117.397 20.0632 117.438 20.0646H120.976C120.992 20.0625 121.007 20.0639 121.022 20.0687C121.037 20.0735 121.05 20.0816 121.061 20.0922C121.072 20.1029 121.08 20.1159 121.085 20.1302C121.09 20.1445 121.091 20.1597 121.089 20.1746C121.081 21.5911 120.704 22.6372 119.96 23.3129C119.216 23.9887 118.116 24.3265 116.66 24.3264C115.847 24.3436 115.042 24.1542 114.327 23.7769C113.665 23.4179 113.124 22.879 112.771 22.226C112.391 21.5008 112.202 20.6953 112.219 19.8814C112.2 19.0668 112.386 18.2599 112.759 17.5305C113.105 16.8717 113.648 16.3294 114.315 15.974C115.036 15.603 115.844 15.4179 116.66 15.4363C117.614 15.4363 118.378 15.5809 118.95 15.87C119.566 16.1991 120.076 16.6873 120.424 17.2807C120.456 17.3322 120.473 17.391 120.474 17.4511C120.473 17.5088 120.454 17.565 120.421 17.6127C120.388 17.6605 120.341 17.6978 120.286 17.7201C120.239 17.7435 120.188 17.7559 120.135 17.7564C120.08 17.7532 120.026 17.7371 119.978 17.7095C119.93 17.6819 119.889 17.6438 119.859 17.5979Z" fill="white"/>
<path d="M122.815 24.0639C122.785 24.0364 122.762 24.0033 122.745 23.9665C122.729 23.9297 122.721 23.8901 122.721 23.85V15.8763C122.72 15.8344 122.728 15.7927 122.744 15.7538C122.76 15.7149 122.784 15.6797 122.815 15.6503C122.843 15.6213 122.877 15.5982 122.915 15.5825C122.953 15.5668 122.993 15.5587 123.034 15.5589H123.059C123.101 15.557 123.143 15.5636 123.182 15.5783C123.221 15.593 123.256 15.6154 123.285 15.6441C123.315 15.6729 123.338 15.7073 123.353 15.7452C123.368 15.7831 123.375 15.8236 123.373 15.8642V23.8504C123.374 23.9301 123.342 24.0068 123.286 24.0643C123.257 24.0943 123.222 24.118 123.183 24.1338C123.144 24.1495 123.102 24.157 123.059 24.1558H123.034C122.993 24.1558 122.953 24.1477 122.915 24.132C122.877 24.1162 122.843 24.0928 122.815 24.0639Z" fill="white"/>
<path d="M122.815 24.0639C122.785 24.0364 122.762 24.0033 122.745 23.9665C122.729 23.9297 122.721 23.8901 122.721 23.85V15.8763C122.72 15.8344 122.728 15.7927 122.744 15.7538C122.76 15.7149 122.784 15.6797 122.815 15.6503C122.843 15.6213 122.877 15.5982 122.915 15.5825C122.953 15.5668 122.993 15.5587 123.034 15.5589H123.059C123.101 15.557 123.143 15.5636 123.182 15.5783C123.221 15.593 123.256 15.6154 123.285 15.6441C123.315 15.6729 123.338 15.7073 123.353 15.7452C123.368 15.7831 123.375 15.8236 123.373 15.8642V23.8504C123.374 23.9301 123.342 24.0068 123.286 24.0643C123.257 24.0943 123.222 24.118 123.183 24.1338C123.144 24.1495 123.102 24.157 123.059 24.1558H123.034C122.993 24.1558 122.953 24.1477 122.915 24.132C122.877 24.1162 122.843 24.0928 122.815 24.0639Z" fill="white"/>
<path d="M127.632 24.1126C127.602 24.0852 127.579 24.0521 127.563 24.0154C127.547 23.9787 127.538 23.9391 127.539 23.8992L127.588 16.1938H125.393C125.351 16.1952 125.31 16.1883 125.271 16.1735C125.232 16.1588 125.197 16.1365 125.167 16.108C125.111 16.053 125.079 15.9785 125.079 15.9007C125.079 15.823 125.111 15.7485 125.167 15.6935C125.197 15.6649 125.232 15.6425 125.271 15.6277C125.309 15.6129 125.351 15.6061 125.393 15.6076H130.297C130.384 15.6051 130.467 15.636 130.53 15.6935C130.56 15.7193 130.584 15.7512 130.6 15.7869C130.617 15.8226 130.625 15.8614 130.624 15.9004C130.625 15.9391 130.618 15.9776 130.603 16.0133C130.587 16.0491 130.565 16.0814 130.536 16.1082C130.507 16.1367 130.471 16.159 130.433 16.1738C130.394 16.1886 130.352 16.1954 130.311 16.194H128.241L128.19 23.8994C128.191 23.979 128.16 24.0557 128.103 24.1128C128.074 24.143 128.039 24.1668 128 24.1825C127.961 24.1983 127.919 24.2058 127.877 24.2043H127.852C127.811 24.2045 127.77 24.1965 127.732 24.1808C127.694 24.165 127.66 24.1417 127.632 24.1126Z" fill="white"/>
<path d="M127.632 24.1126C127.602 24.0852 127.579 24.0521 127.563 24.0154C127.547 23.9787 127.538 23.9391 127.539 23.8992L127.588 16.1938H125.393C125.351 16.1952 125.31 16.1883 125.271 16.1735C125.232 16.1588 125.197 16.1365 125.167 16.108C125.111 16.053 125.079 15.9785 125.079 15.9007C125.079 15.823 125.111 15.7485 125.167 15.6935C125.197 15.6649 125.232 15.6425 125.271 15.6277C125.309 15.6129 125.351 15.6061 125.393 15.6076H130.297C130.384 15.6051 130.467 15.636 130.53 15.6935C130.56 15.7193 130.584 15.7512 130.6 15.7869C130.617 15.8226 130.625 15.8614 130.624 15.9004C130.625 15.9391 130.618 15.9776 130.603 16.0133C130.587 16.0491 130.565 16.0814 130.536 16.1082C130.507 16.1367 130.471 16.159 130.433 16.1738C130.394 16.1886 130.352 16.1954 130.311 16.194H128.241L128.19 23.8994C128.191 23.979 128.16 24.0557 128.103 24.1128C128.074 24.143 128.039 24.1668 128 24.1825C127.961 24.1983 127.919 24.2058 127.877 24.2043H127.852C127.811 24.2045 127.77 24.1965 127.732 24.1808C127.694 24.165 127.66 24.1417 127.632 24.1126Z" fill="white"/>
<path d="M137.751 24.0216L136.973 22.2875H132.03L131.328 24.0216C131.303 24.0776 131.26 24.1243 131.206 24.155C131.152 24.1857 131.089 24.1988 131.026 24.1924C130.94 24.1984 130.854 24.1836 130.775 24.1494C130.75 24.1332 130.729 24.1105 130.716 24.0837C130.702 24.0568 130.697 24.027 130.7 23.9973C130.708 23.8922 130.733 23.789 130.775 23.692L134 15.8156C134.018 15.7651 134.054 15.7223 134.101 15.6945C134.148 15.662 134.205 15.6448 134.264 15.645H134.816C134.874 15.6449 134.931 15.6622 134.978 15.6945C135.025 15.7226 135.06 15.7653 135.079 15.8156L138.303 23.692C138.355 23.7903 138.385 23.8984 138.391 24.0091C138.391 24.0898 138.366 24.1417 138.315 24.1621C138.217 24.1884 138.116 24.1987 138.014 24.1926C137.956 24.1927 137.899 24.1757 137.851 24.1437C137.805 24.1158 137.77 24.073 137.752 24.0226M134.551 16.1084L132.243 21.689H136.747L134.551 16.1084Z" fill="white"/>
<path d="M137.751 24.0216L136.973 22.2875H132.03L131.328 24.0216C131.303 24.0776 131.26 24.1243 131.206 24.155C131.152 24.1857 131.089 24.1988 131.026 24.1924C130.94 24.1984 130.854 24.1836 130.775 24.1494C130.75 24.1332 130.729 24.1105 130.716 24.0837C130.702 24.0568 130.697 24.027 130.7 23.9973C130.708 23.8922 130.733 23.789 130.775 23.692L134 15.8156C134.018 15.7651 134.054 15.7223 134.101 15.6945C134.148 15.662 134.205 15.6448 134.264 15.645H134.816C134.874 15.6449 134.931 15.6622 134.978 15.6945C135.025 15.7226 135.06 15.7653 135.079 15.8156L138.303 23.692C138.355 23.7903 138.385 23.8984 138.391 24.0091C138.391 24.0898 138.366 24.1417 138.315 24.1621C138.217 24.1884 138.116 24.1987 138.014 24.1926C137.956 24.1927 137.899 24.1757 137.851 24.1437C137.805 24.1158 137.77 24.073 137.752 24.0226M134.551 16.1084L132.243 21.689H136.747L134.551 16.1084Z" fill="white"/>
<path d="M144.438 24.1562H140.286C140.27 24.1583 140.255 24.1568 140.24 24.152C140.225 24.1472 140.212 24.1392 140.201 24.1285C140.19 24.1178 140.182 24.1047 140.177 24.0904C140.172 24.0761 140.17 24.0609 140.173 24.0459L140.098 15.8767C140.097 15.8367 140.106 15.7971 140.122 15.7603C140.138 15.7235 140.162 15.6904 140.192 15.6629C140.237 15.6179 140.296 15.5871 140.359 15.5746C140.423 15.5621 140.489 15.5684 140.549 15.5927C140.609 15.617 140.66 15.6581 140.696 15.7109C140.732 15.7636 140.75 15.8256 140.75 15.8888L140.825 23.5696H144.438C144.48 23.5682 144.521 23.5751 144.56 23.5899C144.599 23.6046 144.634 23.6269 144.664 23.6554C144.72 23.7107 144.752 23.7853 144.752 23.863C144.752 23.9406 144.72 24.0152 144.664 24.0705C144.634 24.0991 144.599 24.1214 144.56 24.1361C144.521 24.1509 144.48 24.1576 144.438 24.1562Z" fill="white"/>
<path d="M144.438 24.1562H140.286C140.27 24.1583 140.255 24.1568 140.24 24.152C140.225 24.1472 140.212 24.1392 140.201 24.1285C140.19 24.1178 140.182 24.1047 140.177 24.0904C140.172 24.0761 140.17 24.0609 140.173 24.0459L140.098 15.8767C140.097 15.8367 140.106 15.7971 140.122 15.7603C140.138 15.7235 140.162 15.6904 140.192 15.6629C140.237 15.6179 140.296 15.5871 140.359 15.5746C140.423 15.5621 140.489 15.5684 140.549 15.5927C140.609 15.617 140.66 15.6581 140.696 15.7109C140.732 15.7636 140.75 15.8256 140.75 15.8888L140.825 23.5696H144.438C144.48 23.5682 144.521 23.5751 144.56 23.5899C144.599 23.6046 144.634 23.6269 144.664 23.6554C144.72 23.7107 144.752 23.7853 144.752 23.863C144.752 23.9406 144.72 24.0152 144.664 24.0705C144.634 24.0991 144.599 24.1214 144.56 24.1361C144.521 24.1509 144.48 24.1576 144.438 24.1562Z" fill="white"/>
<path d="M108.58 28.9927C108.387 28.6582 108.139 28.357 107.846 28.1012C107.56 27.8695 107.229 27.6951 106.874 27.5881C106.386 27.4658 105.884 27.4083 105.38 27.4173C104.672 27.3985 103.972 27.5607 103.349 27.8878C102.783 28.1977 102.327 28.6686 102.044 29.2372C101.746 29.8769 101.592 30.5711 101.592 31.2734C101.592 31.9758 101.746 32.67 102.044 33.3096C102.33 33.8764 102.785 34.3465 103.349 34.6589C103.971 34.989 104.672 35.1531 105.38 35.1346C106.601 35.1346 107.509 34.8923 108.103 34.4077C108.697 33.9231 109.031 33.1356 109.107 32.0452H106.171C106.085 32.0475 106.002 32.0169 105.939 31.96C105.909 31.9338 105.885 31.9017 105.869 31.8658C105.853 31.83 105.845 31.7912 105.845 31.752C105.845 31.7134 105.852 31.6751 105.867 31.6394C105.882 31.6037 105.905 31.5714 105.933 31.5444C105.963 31.5159 105.998 31.4936 106.037 31.479C106.076 31.4643 106.118 31.4576 106.16 31.4592H109.697C109.712 31.4571 109.728 31.4585 109.743 31.4633C109.757 31.468 109.771 31.4761 109.782 31.4867C109.793 31.4974 109.801 31.5104 109.806 31.5247C109.811 31.5391 109.812 31.5543 109.81 31.5693C109.801 32.9857 109.425 34.0318 108.681 34.7075C107.936 35.3833 106.836 35.7211 105.381 35.721C104.567 35.7382 103.763 35.5488 103.048 35.1716C102.385 34.8125 101.845 34.2736 101.492 33.6206C101.112 32.8954 100.922 32.0899 100.94 31.2761C100.921 30.4614 101.106 29.6544 101.479 28.9251C101.826 28.2661 102.368 27.7238 103.035 27.3682C103.757 26.9974 104.563 26.8124 105.379 26.8309C106.333 26.8309 107.097 26.9755 107.669 27.2647C108.285 27.5934 108.795 28.0815 109.143 28.6749C109.175 28.7266 109.192 28.7855 109.193 28.8457C109.192 28.9034 109.173 28.9596 109.14 29.0073C109.107 29.055 109.06 29.0922 109.005 29.1143C108.959 29.138 108.907 29.1506 108.855 29.151C108.799 29.1477 108.745 29.1316 108.697 29.104C108.649 29.0764 108.608 29.0382 108.578 28.9923" fill="white"/>
<path d="M108.58 28.9927C108.387 28.6582 108.139 28.357 107.846 28.1012C107.56 27.8695 107.229 27.6951 106.874 27.5881C106.386 27.4658 105.884 27.4083 105.38 27.4173C104.672 27.3985 103.972 27.5607 103.349 27.8878C102.783 28.1977 102.327 28.6686 102.044 29.2372C101.746 29.8769 101.592 30.5711 101.592 31.2734C101.592 31.9758 101.746 32.67 102.044 33.3096C102.33 33.8764 102.785 34.3465 103.349 34.6589C103.971 34.989 104.672 35.1531 105.38 35.1346C106.601 35.1346 107.509 34.8923 108.103 34.4077C108.697 33.9231 109.031 33.1356 109.107 32.0452H106.171C106.085 32.0475 106.002 32.0169 105.939 31.96C105.909 31.9338 105.885 31.9017 105.869 31.8658C105.853 31.83 105.845 31.7912 105.845 31.752C105.845 31.7134 105.852 31.6751 105.867 31.6394C105.882 31.6037 105.905 31.5714 105.933 31.5444C105.963 31.5159 105.998 31.4936 106.037 31.479C106.076 31.4643 106.118 31.4576 106.16 31.4592H109.697C109.712 31.4571 109.728 31.4585 109.743 31.4633C109.757 31.468 109.771 31.4761 109.782 31.4867C109.793 31.4974 109.801 31.5104 109.806 31.5247C109.811 31.5391 109.812 31.5543 109.81 31.5693C109.801 32.9857 109.425 34.0318 108.681 34.7075C107.936 35.3833 106.836 35.7211 105.381 35.721C104.567 35.7382 103.763 35.5488 103.048 35.1716C102.385 34.8125 101.845 34.2736 101.492 33.6206C101.112 32.8954 100.922 32.0899 100.94 31.2761C100.921 30.4614 101.106 29.6544 101.479 28.9251C101.826 28.2661 102.368 27.7238 103.035 27.3682C103.757 26.9974 104.563 26.8124 105.379 26.8309C106.333 26.8309 107.097 26.9755 107.669 27.2647C108.285 27.5934 108.795 28.0815 109.143 28.6749C109.175 28.7266 109.192 28.7855 109.193 28.8457C109.192 28.9034 109.173 28.9596 109.14 29.0073C109.107 29.055 109.06 29.0922 109.005 29.1143C108.959 29.138 108.907 29.1506 108.855 29.151C108.799 29.1477 108.745 29.1316 108.697 29.104C108.649 29.0764 108.608 29.0382 108.578 28.9923" fill="white"/>
<path d="M111.555 27.002H114.339C114.894 26.99 115.444 27.1051 115.945 27.3378C116.385 27.5353 116.757 27.8538 117.013 28.2542C117.269 28.6545 117.399 29.1191 117.388 29.5906C117.42 30.2423 117.247 30.8879 116.892 31.4414C116.554 31.9143 116.054 32.2542 115.481 32.3998L116.987 35.0736C117.061 35.1849 117.113 35.3093 117.138 35.4397C117.14 35.4591 117.137 35.4788 117.128 35.4962C117.119 35.5137 117.104 35.5281 117.087 35.5377C117.027 35.5582 116.963 35.5666 116.899 35.5623H116.748C116.691 35.565 116.635 35.5514 116.586 35.5232C116.537 35.4949 116.498 35.4534 116.473 35.4036L114.841 32.5336C114.75 32.5436 114.658 32.5477 114.566 32.5462H112.094V35.2568C112.094 35.3364 112.063 35.4131 112.006 35.4706C111.978 35.5007 111.942 35.5244 111.903 35.5402C111.864 35.556 111.822 35.5635 111.78 35.5621H111.755C111.673 35.56 111.594 35.5272 111.536 35.4703C111.477 35.4135 111.444 35.3371 111.442 35.2568V27.1118C111.439 27.0969 111.441 27.0816 111.446 27.0673C111.451 27.053 111.459 27.04 111.47 27.0293C111.481 27.0187 111.494 27.0107 111.509 27.0059C111.524 27.0012 111.539 26.9998 111.555 27.002ZM116.133 31.3918C116.543 31.0132 116.748 30.4128 116.748 29.5904C116.763 29.3157 116.715 29.0412 116.607 28.7868C116.5 28.5324 116.336 28.3043 116.127 28.1192C115.713 27.7652 115.117 27.5881 114.339 27.5879H112.094V31.96H114.339C115.126 31.96 115.723 31.7706 116.133 31.3918Z" fill="white"/>
<path d="M111.555 27.002H114.339C114.894 26.99 115.444 27.1051 115.945 27.3378C116.385 27.5353 116.757 27.8538 117.013 28.2542C117.269 28.6545 117.399 29.1191 117.388 29.5906C117.42 30.2423 117.247 30.8879 116.892 31.4414C116.554 31.9143 116.054 32.2542 115.481 32.3998L116.987 35.0736C117.061 35.1849 117.113 35.3093 117.138 35.4397C117.14 35.4591 117.137 35.4788 117.128 35.4962C117.119 35.5137 117.104 35.5281 117.087 35.5377C117.027 35.5582 116.963 35.5666 116.899 35.5623H116.748C116.691 35.565 116.635 35.5514 116.586 35.5232C116.537 35.4949 116.498 35.4534 116.473 35.4036L114.841 32.5336C114.75 32.5436 114.658 32.5477 114.566 32.5462H112.094V35.2568C112.094 35.3364 112.063 35.4131 112.006 35.4706C111.978 35.5007 111.942 35.5244 111.903 35.5402C111.864 35.556 111.822 35.5635 111.78 35.5621H111.755C111.673 35.56 111.594 35.5272 111.536 35.4703C111.477 35.4135 111.444 35.3371 111.442 35.2568V27.1118C111.439 27.0969 111.441 27.0816 111.446 27.0673C111.451 27.053 111.459 27.04 111.47 27.0293C111.481 27.0187 111.494 27.0107 111.509 27.0059C111.524 27.0012 111.539 26.9998 111.555 27.002ZM116.133 31.3918C116.543 31.0132 116.748 30.4128 116.748 29.5904C116.763 29.3157 116.715 29.0412 116.607 28.7868C116.5 28.5324 116.336 28.3043 116.127 28.1192C115.713 27.7652 115.117 27.5881 114.339 27.5879H112.094V31.96H114.339C115.126 31.96 115.723 31.7706 116.133 31.3918Z" fill="white"/>
<path d="M118.857 31.2765C118.857 29.8924 119.229 28.8198 119.973 28.0588C120.717 27.2978 121.796 26.9171 123.209 26.9165C124.004 26.8889 124.794 27.0571 125.505 27.4054C126.141 27.7557 126.659 28.2771 126.998 28.9071C127.392 29.6367 127.586 30.4526 127.563 31.2765C127.563 32.6848 127.183 33.7636 126.422 34.5127C125.662 35.2618 124.591 35.6363 123.21 35.636C121.838 35.636 120.77 35.2595 120.004 34.5064C119.239 33.7534 118.857 32.6773 118.857 31.2765ZM126.923 31.2757C126.923 30.0624 126.612 29.1281 125.988 28.473C125.365 27.8178 124.439 27.4901 123.209 27.49C121.962 27.49 121.032 27.8156 120.418 28.4669C119.803 29.1182 119.496 30.0547 119.497 31.2765C119.497 32.514 119.815 33.4541 120.451 34.0969C121.087 34.7397 122.007 35.0612 123.21 35.0613C124.406 35.0613 125.324 34.7378 125.963 34.0907C126.602 33.4436 126.922 32.5047 126.923 31.2757Z" fill="white"/>
<path d="M118.857 31.2765C118.857 29.8924 119.229 28.8198 119.973 28.0588C120.717 27.2978 121.796 26.9171 123.209 26.9165C124.004 26.8889 124.794 27.0571 125.505 27.4054C126.141 27.7557 126.659 28.2771 126.998 28.9071C127.392 29.6367 127.586 30.4526 127.563 31.2765C127.563 32.6848 127.183 33.7636 126.422 34.5127C125.662 35.2618 124.591 35.6363 123.21 35.636C121.838 35.636 120.77 35.2595 120.004 34.5064C119.239 33.7534 118.857 32.6773 118.857 31.2765ZM126.923 31.2757C126.923 30.0624 126.612 29.1281 125.988 28.473C125.365 27.8178 124.439 27.4901 123.209 27.49C121.962 27.49 121.032 27.8156 120.418 28.4669C119.803 29.1182 119.496 30.0547 119.497 31.2765C119.497 32.514 119.815 33.4541 120.451 34.0969C121.087 34.7397 122.007 35.0612 123.21 35.0613C124.406 35.0613 125.324 34.7378 125.963 34.0907C126.602 33.4436 126.922 32.5047 126.923 31.2757Z" fill="white"/>
<path d="M136.121 27.0509C136.15 27.0799 136.172 27.1143 136.187 27.1521C136.202 27.1898 136.209 27.2302 136.208 27.2706V32.18C136.208 33.3191 135.926 34.1941 135.362 34.805C134.797 35.4159 133.967 35.7212 132.871 35.7211C131.658 35.7211 130.778 35.4341 130.23 34.8601C129.683 34.2861 129.409 33.3928 129.408 32.1802V27.2827C129.407 27.2408 129.415 27.1991 129.431 27.1602C129.448 27.1213 129.472 27.0861 129.502 27.0566C129.531 27.0276 129.565 27.0045 129.603 26.9888C129.64 26.9731 129.681 26.965 129.722 26.9651H129.747C129.789 26.9633 129.831 26.97 129.869 26.9848C129.908 26.9995 129.944 27.022 129.973 27.0508C130.003 27.0796 130.026 27.1141 130.041 27.152C130.056 27.1899 130.062 27.2304 130.06 27.271V32.2282C130.039 32.7981 130.133 33.3665 130.336 33.9012C130.502 34.3054 130.815 34.6361 131.215 34.83C131.735 35.0554 132.302 35.1599 132.871 35.1353C134.66 35.1353 135.555 34.1666 135.555 32.229V27.271C135.554 27.2299 135.561 27.189 135.578 27.1511C135.594 27.1132 135.619 27.0791 135.65 27.0513C135.708 26.9959 135.787 26.965 135.869 26.9655H135.894C135.936 26.9641 135.978 26.971 136.016 26.9858C136.055 27.0005 136.091 27.0228 136.12 27.0513" fill="white"/>
<path d="M136.121 27.0509C136.15 27.0799 136.172 27.1143 136.187 27.1521C136.202 27.1898 136.209 27.2302 136.208 27.2706V32.18C136.208 33.3191 135.926 34.1941 135.362 34.805C134.797 35.4159 133.967 35.7212 132.871 35.7211C131.658 35.7211 130.778 35.4341 130.23 34.8601C129.683 34.2861 129.409 33.3928 129.408 32.1802V27.2827C129.407 27.2408 129.415 27.1991 129.431 27.1602C129.448 27.1213 129.472 27.0861 129.502 27.0566C129.531 27.0276 129.565 27.0045 129.603 26.9888C129.64 26.9731 129.681 26.965 129.722 26.9651H129.747C129.789 26.9633 129.831 26.97 129.869 26.9848C129.908 26.9995 129.944 27.022 129.973 27.0508C130.003 27.0796 130.026 27.1141 130.041 27.152C130.056 27.1899 130.062 27.2304 130.06 27.271V32.2282C130.039 32.7981 130.133 33.3665 130.336 33.9012C130.502 34.3054 130.815 34.6361 131.215 34.83C131.735 35.0554 132.302 35.1599 132.871 35.1353C134.66 35.1353 135.555 34.1666 135.555 32.229V27.271C135.554 27.2299 135.561 27.189 135.578 27.1511C135.594 27.1132 135.619 27.0791 135.65 27.0513C135.708 26.9959 135.787 26.965 135.869 26.9655H135.894C135.936 26.9641 135.978 26.971 136.016 26.9858C136.055 27.0005 136.091 27.0228 136.12 27.0513" fill="white"/>
<path d="M138.309 35.4707C138.28 35.4432 138.256 35.41 138.24 35.3732C138.224 35.3363 138.215 35.2967 138.215 35.2567V27.1119C138.213 27.097 138.215 27.0818 138.22 27.0675C138.224 27.0532 138.233 27.0402 138.244 27.0295C138.254 27.0188 138.268 27.0108 138.282 27.006C138.297 27.0012 138.313 26.9998 138.328 27.0019H141.113C141.668 26.9898 142.218 27.1049 142.719 27.3379C143.159 27.5356 143.53 27.8542 143.786 28.2545C144.043 28.6547 144.173 29.1192 144.162 29.5907C144.162 30.5678 143.896 31.3046 143.365 31.8014C142.834 32.2981 142.083 32.5466 141.113 32.5469H138.868V35.2567C138.869 35.3365 138.837 35.4134 138.78 35.4707C138.751 35.5008 138.716 35.5245 138.677 35.5402C138.639 35.556 138.597 35.5635 138.554 35.5622H138.53C138.488 35.5623 138.448 35.5543 138.41 35.5386C138.372 35.5228 138.338 35.4998 138.309 35.4707ZM141.113 31.9601C141.899 31.9601 142.497 31.7707 142.907 31.3919C143.317 31.0131 143.522 30.4126 143.522 29.5905C143.537 29.3158 143.489 29.0413 143.382 28.7869C143.275 28.5324 143.11 28.3044 142.901 28.1193C142.487 27.765 141.892 27.5879 141.114 27.588H138.868V31.9601H141.113Z" fill="white"/>
<path d="M138.309 35.4707C138.28 35.4432 138.256 35.41 138.24 35.3732C138.224 35.3363 138.215 35.2967 138.215 35.2567V27.1119C138.213 27.097 138.215 27.0818 138.22 27.0675C138.224 27.0532 138.233 27.0402 138.244 27.0295C138.254 27.0188 138.268 27.0108 138.282 27.006C138.297 27.0012 138.313 26.9998 138.328 27.0019H141.113C141.668 26.9898 142.218 27.1049 142.719 27.3379C143.159 27.5356 143.53 27.8542 143.786 28.2545C144.043 28.6547 144.173 29.1192 144.162 29.5907C144.162 30.5678 143.896 31.3046 143.365 31.8014C142.834 32.2981 142.083 32.5466 141.113 32.5469H138.868V35.2567C138.869 35.3365 138.837 35.4134 138.78 35.4707C138.751 35.5008 138.716 35.5245 138.677 35.5402C138.639 35.556 138.597 35.5635 138.554 35.5622H138.53C138.488 35.5623 138.448 35.5543 138.41 35.5386C138.372 35.5228 138.338 35.4998 138.309 35.4707ZM141.113 31.9601C141.899 31.9601 142.497 31.7707 142.907 31.3919C143.317 31.0131 143.522 30.4126 143.522 29.5905C143.537 29.3158 143.489 29.0413 143.382 28.7869C143.275 28.5324 143.11 28.3044 142.901 28.1193C142.487 27.765 141.892 27.5879 141.114 27.588H138.868V31.9601H141.113Z" fill="white"/>
<path d="M36.8889 25.0405C36.8828 22.7695 37.3504 20.521 38.2634 18.4311C39.1188 16.3936 40.3802 14.5411 41.9748 12.9806C43.5694 11.42 45.4657 10.1822 47.5542 9.33851C49.7205 8.43529 52.0541 7.97428 54.4107 7.98401C57.8247 7.95546 61.1678 8.93329 64.0002 10.789C66.8709 12.6467 69.1217 15.2801 70.476 18.3659C71.4035 20.4736 71.8661 22.7474 71.8337 25.0401C71.8543 28.018 71.0536 30.9468 69.515 33.5208C68.0018 36.09 65.8195 38.2253 63.1881 39.7116C60.529 41.2345 57.4949 42.0258 54.4099 42.0008C51.3263 42.0254 48.2914 41.2519 45.6159 39.7595C42.9494 38.2816 40.7353 36.1392 39.2014 33.5523C37.6674 30.9655 36.8698 28.0273 36.8889 25.0405ZM46.8584 25.0857C46.8485 26.0355 47.0406 26.977 47.4226 27.851C47.8046 28.7251 48.3682 29.5127 49.078 30.1645C49.7724 30.8526 50.6031 31.3963 51.5197 31.7626C52.4364 32.1289 53.4199 32.3103 54.4107 32.2956C55.3903 32.3103 56.3626 32.1303 57.2683 31.7667C58.174 31.403 58.9939 30.8633 59.678 30.1806C60.3819 29.5228 60.9392 28.7311 61.3152 27.8547C61.6913 26.9782 61.8781 26.0358 61.864 25.0861C61.8785 24.1267 61.6921 23.1745 61.3163 22.2875C60.9405 21.4005 60.3831 20.5973 59.678 19.9268C58.9987 19.2358 58.1804 18.6885 57.2741 18.319C56.3679 17.9496 55.3931 17.7659 54.4107 17.7795C53.4185 17.7656 52.4339 17.9489 51.517 18.3181C50.6001 18.6873 49.7702 19.2347 49.078 19.9268C48.3643 20.5924 47.7989 21.3939 47.4171 22.2813C47.0352 23.1688 46.8451 24.1236 46.8584 25.0857Z" fill="white"/>
<path d="M36.8889 25.0405C36.8828 22.7695 37.3504 20.521 38.2634 18.4311C39.1188 16.3936 40.3802 14.5411 41.9748 12.9806C43.5694 11.42 45.4657 10.1822 47.5542 9.33851C49.7205 8.43529 52.0541 7.97428 54.4107 7.98401C57.8247 7.95546 61.1678 8.93329 64.0002 10.789C66.8709 12.6467 69.1217 15.2801 70.476 18.3659C71.4035 20.4736 71.8661 22.7474 71.8337 25.0401C71.8543 28.018 71.0536 30.9468 69.515 33.5208C68.0018 36.09 65.8195 38.2253 63.1881 39.7116C60.529 41.2345 57.4949 42.0258 54.4099 42.0008C51.3263 42.0254 48.2914 41.2519 45.6159 39.7595C42.9494 38.2816 40.7353 36.1392 39.2014 33.5523C37.6674 30.9655 36.8698 28.0273 36.8889 25.0405ZM46.8584 25.0857C46.8485 26.0355 47.0406 26.977 47.4226 27.851C47.8046 28.7251 48.3682 29.5127 49.078 30.1645C49.7724 30.8526 50.6031 31.3963 51.5197 31.7626C52.4364 32.1289 53.4199 32.3103 54.4107 32.2956C55.3903 32.3103 56.3626 32.1303 57.2683 31.7667C58.174 31.403 58.9939 30.8633 59.678 30.1806C60.3819 29.5228 60.9392 28.7311 61.3152 27.8547C61.6913 26.9782 61.8781 26.0358 61.864 25.0861C61.8785 24.1267 61.6921 23.1745 61.3163 22.2875C60.9405 21.4005 60.3831 20.5973 59.678 19.9268C58.9987 19.2358 58.1804 18.6885 57.2741 18.319C56.3679 17.9496 55.3931 17.7659 54.4107 17.7795C53.4185 17.7656 52.4339 17.9489 51.517 18.3181C50.6001 18.6873 49.7702 19.2347 49.078 19.9268C48.3643 20.5924 47.7989 21.3939 47.4171 22.2813C47.0352 23.1688 46.8451 24.1236 46.8584 25.0857Z" fill="white"/>
<path d="M24.945 0V9.74481C24.9197 9.74317 24.8949 9.73663 24.8722 9.72557C24.8495 9.71451 24.8294 9.69915 24.8128 9.6804C24.398 9.50715 23.995 9.35584 23.6041 9.22647C23.2248 9.10047 22.8557 8.99547 22.4968 8.91147C21.9481 8.74206 21.443 8.60758 20.9717 8.49955C20.4749 8.40424 19.9722 8.32731 19.4607 8.274C18.5438 8.22372 17.8031 8.19323 17.2343 8.18011C15.5699 8.19747 13.9168 8.44772 12.3256 8.92318C12.2889 8.93409 12.2532 8.9462 12.2173 8.95731C12.0389 9.01203 11.8628 9.07261 11.6865 9.13298C7.84543 10.4818 4.59166 13.0652 2.46231 16.4567C2.0528 17.135 1.68868 17.8383 1.37221 18.5622C0.460934 20.6395 -0.0060333 22.8758 -0.000205517 25.1346C-0.000205517 25.2057 0.00228375 25.2759 0.00269863 25.3474C0.0501363 25.6375 0.0709623 25.9312 0.0649304 26.225C0.330038 30.2436 1.94564 33.7756 4.91175 36.8209C5.62584 37.558 6.40308 38.2346 7.23507 38.8433C7.71031 39.1711 8.20049 39.4842 8.71784 39.7722C10.4267 40.7237 12.2906 41.3825 14.2285 41.7199C14.6514 41.7848 15.0806 41.8381 15.5171 41.872C15.6489 41.8938 15.8582 41.9153 16.1452 41.9364C16.336 41.9503 16.4947 41.9649 16.6273 41.9794C16.9177 41.9919 17.2081 42.0008 17.5019 42.0008C17.8752 42.0008 18.2461 41.9891 18.6131 41.9677C21.3127 41.8254 23.9381 41.056 26.2697 39.7237C28.8951 38.2478 31.0746 36.1244 32.5885 33.5675C33.2415 32.4773 33.7647 31.3182 34.148 30.1126C34.6558 28.4997 34.9107 26.8215 34.9043 25.1346V0H24.945ZM21.868 30.0744C21.184 30.757 20.3641 31.2967 19.4585 31.6603C18.5529 32.024 17.5807 32.204 16.6012 32.1894C15.6104 32.2039 14.6269 32.0225 13.7102 31.6562C12.7936 31.29 11.9628 30.7464 11.2683 30.0585C10.5586 29.4066 9.99502 28.619 9.61304 27.745C9.23106 26.8709 9.03893 25.9295 9.04871 24.9797C9.03536 24.0176 9.22553 23.0631 9.60738 22.1756C9.98923 21.288 10.5546 20.4865 11.2683 19.8208C11.9605 19.1287 12.7904 18.5814 13.7074 18.2122C14.6243 17.8431 15.609 17.6599 16.6012 17.6739C17.5835 17.6603 18.5581 17.844 19.4643 18.2133C20.3705 18.5827 21.1888 19.1299 21.868 19.8208C22.573 20.4912 23.1304 21.2944 23.5062 22.1813C23.882 23.0683 24.0683 24.0204 24.0538 24.9797C24.068 25.9294 23.8813 26.8718 23.5053 27.7483C23.1292 28.6247 22.5719 29.4166 21.868 30.0744Z" fill="white"/>
<path d="M24.945 0V9.74481C24.9197 9.74317 24.8949 9.73663 24.8722 9.72557C24.8495 9.71451 24.8294 9.69915 24.8128 9.6804C24.398 9.50715 23.995 9.35584 23.6041 9.22647C23.2248 9.10047 22.8557 8.99547 22.4968 8.91147C21.9481 8.74206 21.443 8.60758 20.9717 8.49955C20.4749 8.40424 19.9722 8.32731 19.4607 8.274C18.5438 8.22372 17.8031 8.19323 17.2343 8.18011C15.5699 8.19747 13.9168 8.44772 12.3256 8.92318C12.2889 8.93409 12.2532 8.9462 12.2173 8.95731C12.0389 9.01203 11.8628 9.07261 11.6865 9.13298C7.84543 10.4818 4.59166 13.0652 2.46231 16.4567C2.0528 17.135 1.68868 17.8383 1.37221 18.5622C0.460934 20.6395 -0.0060333 22.8758 -0.000205517 25.1346C-0.000205517 25.2057 0.00228375 25.2759 0.00269863 25.3474C0.0501363 25.6375 0.0709623 25.9312 0.0649304 26.225C0.330038 30.2436 1.94564 33.7756 4.91175 36.8209C5.62584 37.558 6.40308 38.2346 7.23507 38.8433C7.71031 39.1711 8.20049 39.4842 8.71784 39.7722C10.4267 40.7237 12.2906 41.3825 14.2285 41.7199C14.6514 41.7848 15.0806 41.8381 15.5171 41.872C15.6489 41.8938 15.8582 41.9153 16.1452 41.9364C16.336 41.9503 16.4947 41.9649 16.6273 41.9794C16.9177 41.9919 17.2081 42.0008 17.5019 42.0008C17.8752 42.0008 18.2461 41.9891 18.6131 41.9677C21.3127 41.8254 23.9381 41.056 26.2697 39.7237C28.8951 38.2478 31.0746 36.1244 32.5885 33.5675C33.2415 32.4773 33.7647 31.3182 34.148 30.1126C34.6558 28.4997 34.9107 26.8215 34.9043 25.1346V0H24.945ZM21.868 30.0744C21.184 30.757 20.3641 31.2967 19.4585 31.6603C18.5529 32.024 17.5807 32.204 16.6012 32.1894C15.6104 32.2039 14.6269 32.0225 13.7102 31.6562C12.7936 31.29 11.9628 30.7464 11.2683 30.0585C10.5586 29.4066 9.99502 28.619 9.61304 27.745C9.23106 26.8709 9.03893 25.9295 9.04871 24.9797C9.03536 24.0176 9.22553 23.0631 9.60738 22.1756C9.98923 21.288 10.5546 20.4865 11.2683 19.8208C11.9605 19.1287 12.7904 18.5814 13.7074 18.2122C14.6243 17.8431 15.609 17.6599 16.6012 17.6739C17.5835 17.6603 18.5581 17.844 19.4643 18.2133C20.3705 18.5827 21.1888 19.1299 21.868 19.8208C22.573 20.4912 23.1304 21.2944 23.5062 22.1813C23.882 23.0683 24.0683 24.0204 24.0538 24.9797C24.068 25.9294 23.8813 26.8718 23.5053 27.7483C23.1292 28.6247 22.5719 29.4166 21.868 30.0744Z" fill="white"/>
<path d="M84.6211 37.0904C84.6151 37.665 84.7313 38.2345 84.9623 38.7632C85.1933 39.292 85.5342 39.7685 85.9634 40.1629C86.3836 40.5791 86.8861 40.908 87.4407 41.1296C87.9953 41.3511 88.5903 41.4607 89.1897 41.4518C89.7823 41.4607 90.3705 41.3518 90.9184 41.1318C91.4663 40.9118 91.9622 40.5852 92.376 40.1722C92.8016 39.7742 93.1386 39.2952 93.3661 38.7651C93.5935 38.2349 93.7065 37.6649 93.698 37.0904C93.7067 36.5102 93.594 35.9343 93.3667 35.3978C93.1394 34.8614 92.8023 34.3755 92.376 33.9699C91.9651 33.5519 91.4701 33.2208 90.9219 32.9973C90.3737 32.7738 89.784 32.6627 89.1897 32.6709C88.5895 32.6625 87.9937 32.7733 87.439 32.9966C86.8842 33.22 86.3821 33.5512 85.9634 33.9699C85.5317 34.3726 85.1898 34.8574 84.9589 35.3943C84.7279 35.9311 84.6129 36.5085 84.6211 37.0904Z" fill="#76B900"/>
<path d="M85.4403 40.678C84.9406 40.2166 84.5439 39.66 84.2748 39.0429C84.0056 38.4258 83.8699 37.7614 83.876 37.091C83.8677 36.4135 84.002 35.7415 84.2707 35.1164C84.5393 34.4913 84.9367 33.9263 85.4382 33.4564C85.9158 32.9816 86.4856 32.604 87.1145 32.3455C87.7433 32.0869 88.4187 31.9527 89.1014 31.9505C88.0444 31.6849 87.0633 31.1886 86.2327 30.4991C86.1212 30.4371 86.0189 30.3607 85.9284 30.2721C85.8838 30.2279 85.8419 30.1831 85.7979 30.139C85.7711 30.113 85.7454 30.0855 85.7195 30.0583C85.6761 30.0129 85.6334 29.9671 85.5915 29.921C85.5772 29.906 85.5651 29.8901 85.5513 29.8751C84.8959 29.2308 84.3783 28.4662 84.0287 27.6257C83.6791 26.7853 83.5043 25.8856 83.5144 24.9789C83.5263 23.272 84.1474 21.6222 85.2713 20.312C86.3952 19.0017 87.9521 18.1125 89.6753 17.7965V8.24856C89.5218 8.25684 89.3632 8.26491 89.1982 8.2742C88.6867 8.3269 88.1841 8.40384 87.6873 8.49975C87.2159 8.60677 86.7108 8.74206 86.1617 8.91107C85.8034 8.99547 85.4346 9.10067 85.0553 9.22667C84.6631 9.3559 84.2599 9.50728 83.8459 9.6808C83.8293 9.69965 83.809 9.71507 83.7862 9.72614C83.7634 9.7372 83.7386 9.74369 83.7131 9.74521V0H73.7561V25.1346C73.7497 26.8216 74.0047 28.4998 74.5126 30.1128C74.6428 30.5245 74.7912 30.9298 74.9551 31.3318C75.2746 32.1228 75.6545 32.8894 76.0916 33.6252C77.6049 36.1941 79.7872 38.3292 82.4185 39.8154C83.7171 40.5582 85.1119 41.1286 86.5658 41.5115C86.1556 41.2819 85.7771 41.0016 85.4403 40.678Z" fill="white"/>
<path d="M85.4403 40.678C84.9406 40.2166 84.5439 39.66 84.2748 39.0429C84.0056 38.4258 83.8699 37.7614 83.876 37.091C83.8677 36.4135 84.002 35.7415 84.2707 35.1164C84.5393 34.4913 84.9367 33.9263 85.4382 33.4564C85.9158 32.9816 86.4856 32.604 87.1145 32.3455C87.7433 32.0869 88.4187 31.9527 89.1014 31.9505C88.0444 31.6849 87.0633 31.1886 86.2327 30.4991C86.1212 30.4371 86.0189 30.3607 85.9284 30.2721C85.8838 30.2279 85.8419 30.1831 85.7979 30.139C85.7711 30.113 85.7454 30.0855 85.7195 30.0583C85.6761 30.0129 85.6334 29.9671 85.5915 29.921C85.5772 29.906 85.5651 29.8901 85.5513 29.8751C84.8959 29.2308 84.3783 28.4662 84.0287 27.6257C83.6791 26.7853 83.5043 25.8856 83.5144 24.9789C83.5263 23.272 84.1474 21.6222 85.2713 20.312C86.3952 19.0017 87.9521 18.1125 89.6753 17.7965V8.24856C89.5218 8.25684 89.3632 8.26491 89.1982 8.2742C88.6867 8.3269 88.1841 8.40384 87.6873 8.49975C87.2159 8.60677 86.7108 8.74206 86.1617 8.91107C85.8034 8.99547 85.4346 9.10067 85.0553 9.22667C84.6631 9.3559 84.2599 9.50728 83.8459 9.6808C83.8293 9.69965 83.809 9.71507 83.7862 9.72614C83.7634 9.7372 83.7386 9.74369 83.7131 9.74521V0H73.7561V25.1346C73.7497 26.8216 74.0047 28.4998 74.5126 30.1128C74.6428 30.5245 74.7912 30.9298 74.9551 31.3318C75.2746 32.1228 75.6545 32.8894 76.0916 33.6252C77.6049 36.1941 79.7872 38.3292 82.4185 39.8154C83.7171 40.5582 85.1119 41.1286 86.5658 41.5115C86.1556 41.2819 85.7771 41.0016 85.4403 40.678Z" fill="white"/>
</g>
</g>
</g>
</g>
</g>
<defs>
<clipPath id="clip0_18_515">
<rect width="145" height="42" fill="white"/>
</clipPath>
</defs>
</svg>
